<svg xmlns="http://www.w3.org/2000/svg" width="512" height="128" viewBox="0 0 512 128"><g fill="none" stroke-linecap="round"><path stroke="#ffcf5c" stroke-width="8" d="M32 64h56M60 36v56M40 44l40 40M80 44L40 84"/><path stroke="#ff75dc" stroke-width="7" d="M145 64c20-34 56-34 76 0-20 34-56 34-76 0zM158 64h50"/><path stroke="#75f5dc" stroke-width="8" d="M270 92l30-58 30 58M284 72h32"/><path stroke="#ff4f72" stroke-width="8" d="M380 96c18-40 52-58 92-62M380 96c34-4 62-20 82-50"/></g><g fill="#fff8d6" font-family="Arial,sans-serif" font-size="13" text-anchor="middle"><text x="60" y="116">HIT</text><text x="183" y="116">SPECIAL</text><text x="300" y="116">TELEGRAPH</text><text x="430" y="116">DASH TRAIL</text></g></svg>
